<svg xmlns="http://www.w3.org/2000/svg" width="1837" height="2048" viewBox="0 0 1837 2048">
  <path d="M1393,761.5 L1256,761.5 L1186,742.5 L1183.5,744 L1183,761.5 L845,761.5 L846.5,734 L841.5,707 L843,705.5 L856,705.5 L857.5,703 L856.5,378 L830.5,378 L830.5,675 L829,676.5 L823.5,665 L813.5,651 L791.5,630 L791.5,322 L793,320.5 L1392,320.5 L1393.5,322 L1393,761.5 Z M587,557.5 L583.5,556 L573.5,536 L574.5,521 L588.5,495 L588.5,487 L584.5,479 L575,475.5 L565,479.5 L560.5,484 L560.5,490 L563.5,494 L563.5,498 L561,500.5 L546,505.5 L540.5,499 L533.5,479 L540,471.5 L557,459.5 L569,454.5 L583,452.5 L595,454.5 L607.5,464 L613.5,477 L614.5,487 L610.5,504 L598.5,526 L598.5,535 L602.5,546 L602.5,551 L587,557.5 Z M527,582.5 L505.5,542 L486.5,500 L486.5,492 L492,486.5 L499,483.5 L505,483.5 L508,485.5 L514.5,496 L540.5,571 L541.5,576 L540,577.5 L527,582.5 Z M768,570.5 L764,570.5 L746,554.5 L732,549.5 L710,550.5 L699,555.5 L689,563.5 L685,563.5 L682.5,561 L682.5,556 L691,548.5 L707,540.5 L716,538.5 L730,538.5 L747,543.5 L758,550.5 L770.5,563 L770.5,568 L768,570.5 Z M606,593.5 L600,593.5 L592.5,587 L590.5,582 L590.5,573 L600,564.5 L611,563.5 L619.5,572 L620.5,583 L614,590.5 L606,593.5 Z M752,590.5 L747,589.5 L739,582.5 L727,577.5 L711,580.5 L699,588.5 L694.5,586 L693.5,582 L700,574.5 L709,569.5 L716,567.5 L731,567.5 L742,571.5 L754.5,582 L755.5,587 L752,590.5 Z M545,619.5 L536,617.5 L530.5,612 L528.5,601 L530.5,596 L536,591.5 L547,588.5 L552,590.5 L557.5,596 L559.5,608 L555,614.5 L545,619.5 Z M708,865.5 L698,865.5 L651,837.5 L603,815.5 L593.5,802 L582.5,777 L579.5,762 L579,736.5 L559,745.5 L486,798.5 L462,809.5 L437,815.5 L410,813.5 L393,808.5 L376,799.5 L358.5,784 L352.5,775 L348.5,765 L348.5,752 L350,749.5 L361,761.5 L378,769.5 L395,770.5 L409,766.5 L440,749.5 L494,702.5 L513,689.5 L537,678.5 L561,673.5 L578,673.5 L603,679.5 L625,691.5 L659,719.5 L666,722.5 L672.5,714 L639,683.5 L621,671.5 L610,666.5 L608.5,664 L621,651.5 L637,639.5 L654,630.5 L668,625.5 L690,621.5 L713,621.5 L733,625.5 L752,632.5 L773,644.5 L791.5,661 L802.5,675 L818.5,709 L821.5,726 L822.5,751 L819.5,772 L814.5,788 L807.5,803 L796.5,820 L779,837.5 L757,852.5 L730,862.5 L708,865.5 Z M1207,1799.5 L1206.5,773 L1211,772.5 L1370,814.5 L1372.5,814 L1374,796.5 L1395.5,797 L1395.5,1774 L1374,1775.5 L1372.5,1774 L1372.5,1756 L1369,1755.5 L1334,1766.5 L1207,1799.5 Z M1111,818.5 L827,817.5 L826.5,815 L836,796.5 L1182,796.5 L1183.5,798 L1183,817.5 L1111,818.5 Z M463,1494.5 L405,1493.5 L357,1489.5 L327,1485.5 L324.5,1479 L316.5,1348 L309.5,1269 L306.5,1217 L306.5,1176 L309.5,1163 L316.5,1149 L331.5,1126 L344.5,1110 L361,1093.5 L413,1052.5 L433.5,1029 L430.5,1022 L389.5,973 L386.5,962 L386.5,952 L392.5,936 L461.5,837 L471,826.5 L481,820.5 L496,816.5 L538,815.5 L568,820.5 L597,828.5 L626,840.5 L659,857.5 L696,879.5 L739,909.5 L749,917.5 L779,949.5 L787.5,940 L775.5,924 L745.5,896 L742.5,883 L773,869.5 L787,860.5 L804,844.5 L808.5,850 L813.5,863 L862.5,1072 L863.5,1092 L858.5,1104 L851,1112.5 L835,1120.5 L820,1120.5 L806,1114.5 L796.5,1105 L759.5,1050 L717,992.5 L676.5,1038 L640.5,1085 L617.5,1126 L607.5,1160 L607.5,1166 L610.5,1171 L780.5,1402 L783.5,1408 L783.5,1418 L780.5,1425 L767,1439.5 L741,1455.5 L723,1463.5 L683,1475.5 L647,1481.5 L591,1487.5 L463,1494.5 Z M1246.5,1719 L1262.5,1713 L1262.5,861 L1248,854.5 L1245.5,855 L1244.5,895 L1244.5,1718 L1246.5,1719 Z M1134,980.5 L1030,980.5 L1028.5,930 L1030,928.5 L1135,929.5 L1135.5,979 L1134,980.5 Z M1182,1029.5 L877,1029.5 L870.5,1004 L1182,1003.5 L1183.5,1008 L1182,1029.5 Z M1056,1321.5 L981,1320.5 L974.5,1316 L971.5,1309 L971.5,1198 L978.5,1162 L996.5,1110 L996.5,1068 L991,1066.5 L985.5,1058 L986.5,1055 L992,1050.5 L1047,1050.5 L1052.5,1056 L1051.5,1062 L1048,1065.5 L1042.5,1067 L1042.5,1114 L1059.5,1158 L1064.5,1181 L1067.5,1207 L1067.5,1305 L1065.5,1315 L1060,1320.5 L1056,1321.5 Z M1176,1321.5 L1105,1321.5 L1099,1319.5 L1092.5,1311 L1092.5,1197 L1101.5,1153 L1116.5,1114 L1116.5,1068 L1111,1065.5 L1106.5,1060 L1108.5,1053 L1112,1050.5 L1167,1050.5 L1172.5,1055 L1172.5,1062 L1169,1065.5 L1163.5,1067 L1163.5,1115 L1178.5,1153 L1183.5,1173 L1187.5,1203 L1187.5,1312 L1182,1319.5 L1176,1321.5 Z M1183,1774.5 L798.5,1774 L791.5,1744 L791.5,1439 L800.5,1423 L801.5,1406 L791.5,1388 L792,1133.5 L814.5,1144 L814.5,1752 L1183,1752.5 L1183,1774.5 Z M1056.5,1310 L1057.5,1210 L1053.5,1179 L1047.5,1156 L1046,1154.5 L993,1154.5 L989.5,1162 L982.5,1196 L982.5,1309 L984,1310.5 L1056.5,1310 Z M1176.5,1310 L1177.5,1202 L1168.5,1157 L1166,1154.5 L1114,1154.5 L1107.5,1172 L1102.5,1202 L1102.5,1309 L1104,1310.5 L1176.5,1310 Z M1182,1362.5 L825,1362.5 L824.5,1338 L1183,1337.5 L1183.5,1361 L1182,1362.5 Z M1106,1554.5 L1084,1551.5 L1067,1544.5 L1056,1536.5 L1045.5,1525 L1035.5,1508 L1031.5,1490 L1032.5,1476 L1040,1466.5 L1052,1460.5 L1072,1454.5 L1087,1452.5 L1122,1452.5 L1138,1454.5 L1155,1459.5 L1164,1463.5 L1172.5,1470 L1176.5,1478 L1176.5,1491 L1171.5,1510 L1162.5,1526 L1143,1543.5 L1121,1552.5 L1106,1554.5 Z M729,1832.5 L713,1831.5 L695,1824.5 L679.5,1811 L670.5,1796 L615.5,1533 L603,1502.5 L672,1495.5 L697,1490.5 L718,1483.5 L720.5,1486 L779.5,1765 L779.5,1787 L771.5,1807 L753,1824.5 L742,1829.5 L729,1832.5 Z M439,1829.5 L418,1829.5 L398,1820.5 L383.5,1807 L376.5,1795 L373.5,1785 L373.5,1760 L387.5,1511 L389,1509.5 L413,1511.5 L500,1510.5 L498.5,1564 L485.5,1785 L478.5,1803 L468,1815.5 L453,1825.5 L439,1829.5 Z M1183,1743.5 L824,1743.5 L823.5,1570 L873,1568.5 L1183,1569.5 L1183,1743.5 Z M889,1826.5 L806,1826.5 L805.5,1800 L889,1799.5 L889,1826.5 Z M1381,1826.5 L1297,1826.5 L1296.5,1800 L1381,1799.5 L1381,1826.5 Z" fill="#000000" fill-rule="evenodd"/>
</svg>
